# xmcd
#
# Track frame offsets:
#	150
#	16909
#	29243
#	44841
#	62086
#	78070
#	92284
#	108830
#	122817
#	137746
#	154066
#	169010
#	182946
#	198914
#	215244
#	232497
#	250028
#	267197
#	283533
#	300649
#
# Disc length: 4227
#
# Revision: 2
# Processed by: cddbd v1.5.1PL0 Copyright (c) Steve Scherf et al.
# Submitted via: audiograbber 1.83.01
# Normalized: r1:DSETVAR1
#
DISCID=1f108114
DTITLE=Various Artist - Club rotation 16 cd 1
DYEAR=2002
DGENRE=Dance
TTITLE0=Lasgo - Something
TTITLE1=Sylver - Forever in love
TTITLE2=Perpetuous dreamer - The sound of goodbye
TTITLE3=The mackenzie feat. jessy - All i need
TTITLE4=Airplay - The music is moving
TTITLE5=Coast 2 coast feat. discovery - Home
TTITLE6=Rank 1 feat. shanokee - Such is life
TTITLE7=Orinoko - Island
TTITLE8=Dreamcatcher - I don't wanna loose my way
TTITLE9=Kay cee - I feel you
TTITLE10=Marc et claude - Tremble
TTITLE11=Safri duo - Samb-adagio
TTITLE12=Djs@work - Someday
TTITLE13=Darude - Out of control
TTITLE14=Blank and Jones - Nightclubbing
TTITLE15=Kai tracid - Too many times
TTITLE16=Klubbingman - Welcome to the club
TTITLE17=Escanor - Are u ready
TTITLE18=Ratty - Living on video
TTITLE19=Push - The legacy
EXTD=
EXTT0=
EXTT1=
EXTT2=
EXTT3=
EXTT4=
EXTT5=
EXTT6=
EXTT7=
EXTT8=
EXTT9=
EXTT10=
EXTT11=
EXTT12=
EXTT13=
EXTT14=
EXTT15=
EXTT16=
EXTT17=
EXTT18=
EXTT19=
PLAYORDER=
